
          <svg data-logo="logo" xmlns="http://www.w3.org/2000/svg" viewBox="0 0 177 43">
            <g id="logogram" transform="translate(0, 1) rotate(0)"><path d="M0.760437 30.7827L0.76044 10.7827L10.7604 16.3383V25.2827L18.7605 29.7827L26.7605 25.2827V16.3383L36.7605 10.7827V30.7827L18.7605 40.7827L0.760437 30.7827Z" fill="#192657"/><path fill-rule="evenodd" clip-rule="evenodd" d="M5.76045 13.5605L0.760437 10.7827L18.7605 0.782715L36.7605 10.7827L31.7605 13.5605V28.2827L18.7605 35.7828L5.76044 28.2827L5.76045 13.5605ZM31.2189 13.8615L26.7605 16.3383V16.2827L18.7605 11.7827L10.7604 16.2827V16.3383L6.30211 13.8615V27.9751L18.7605 35.1626L31.2189 27.9751V13.8615Z" fill="url(#paint0_linear_5558_2243)"/></g>
            <g id="logotype" transform="translate(43, 8)"><path fill="#111111" d="M12.60 27L6.84 27L15.54 1.54L22.37 1.54L31.29 27L25.50 27L21.42 14.71Q20.68 12.34 19.92 9.51Q19.16 6.68 18.32 3.33L18.32 3.33L19.45 3.33Q18.65 6.70 17.94 9.54Q17.23 12.39 16.53 14.71L16.53 14.71L12.60 27ZM25.86 21.09L12.27 21.09L12.27 17.00L25.86 17.00L25.86 21.09ZM32.16 1.54L37.37 1.54L37.37 27L32.16 27L32.16 1.54ZM60.00 27L53.18 27L44.26 1.54L50.05 1.54L54.12 13.82Q54.85 16.15 55.61 18.94Q56.36 21.74 57.20 25.05L57.20 25.05L56.07 25.05Q56.89 21.70 57.61 18.93Q58.32 16.15 59.02 13.82L59.02 13.82L62.95 1.54L68.71 1.54L60.00 27ZM74.59 27L69.46 27L69.46 7.89L74.59 7.89L74.59 27ZM72.03 5.40L72.03 5.40Q70.86 5.40 70.04 4.63Q69.22 3.86 69.22 2.77L69.22 2.77Q69.22 1.67 70.04 0.90Q70.86 0.13 72.03 0.13L72.03 0.13Q73.19 0.13 74.02 0.90Q74.85 1.66 74.85 2.77L74.85 2.77Q74.85 3.86 74.02 4.63Q73.19 5.40 72.03 5.40ZM83.66 27.32L83.66 27.32Q81.46 27.32 79.69 26.19Q77.92 25.05 76.90 22.86Q75.87 20.66 75.87 17.48L75.87 17.48Q75.87 14.22 76.93 12.03Q77.99 9.84 79.75 8.75Q81.51 7.65 83.63 7.65L83.63 7.65Q85.25 7.65 86.33 8.20Q87.41 8.75 88.07 9.55Q88.74 10.35 89.06 11.11L89.06 11.11L89.23 11.11L89.23 1.54L94.36 1.54L94.36 27L89.32 27L89.32 23.94L89.06 23.94Q88.72 24.71 88.05 25.49Q87.37 26.27 86.29 26.79Q85.22 27.32 83.66 27.32ZM85.24 23.21L85.24 23.21Q86.53 23.21 87.46 22.49Q88.38 21.77 88.86 20.48Q89.34 19.19 89.34 17.46L89.34 17.46Q89.34 15.72 88.87 14.45Q88.40 13.17 87.47 12.47Q86.55 11.76 85.24 11.76L85.24 11.76Q83.89 11.76 82.97 12.49Q82.06 13.23 81.60 14.51Q81.13 15.79 81.13 17.46L81.13 17.46Q81.13 19.14 81.60 20.44Q82.07 21.74 82.99 22.47Q83.90 23.21 85.24 23.21ZM105.09 27.38L105.09 27.38Q102.17 27.38 100.05 26.18Q97.93 24.98 96.79 22.78Q95.66 20.57 95.66 17.55L95.66 17.55Q95.66 14.59 96.79 12.37Q97.91 10.15 99.98 8.90Q102.05 7.65 104.84 7.65L104.84 7.65Q106.72 7.65 108.34 8.25Q109.96 8.85 111.19 10.06Q112.42 11.26 113.12 13.07Q113.81 14.88 113.81 17.34L113.81 17.34L113.81 18.78L97.76 18.78L97.76 15.57L111.30 15.57L108.90 16.42Q108.90 14.93 108.45 13.83Q108.00 12.73 107.10 12.12Q106.20 11.52 104.87 11.52L104.87 11.52Q103.55 11.52 102.62 12.13Q101.69 12.75 101.21 13.80Q100.73 14.85 100.73 16.20L100.73 16.20L100.73 18.47Q100.73 20.13 101.29 21.26Q101.84 22.39 102.84 22.95Q103.84 23.51 105.18 23.51L105.18 23.51Q106.08 23.51 106.82 23.26Q107.55 23.00 108.07 22.50Q108.60 21.99 108.87 21.26L108.87 21.26L113.52 22.13Q113.06 23.70 111.91 24.89Q110.77 26.08 109.05 26.73Q107.33 27.38 105.09 27.38ZM123.58 27.38L123.58 27.38Q120.71 27.38 118.61 26.14Q116.51 24.90 115.37 22.68Q114.23 20.47 114.23 17.53L114.23 17.53Q114.23 14.56 115.37 12.35Q116.51 10.13 118.61 8.89Q120.71 7.65 123.58 7.65L123.58 7.65Q126.47 7.65 128.56 8.89Q130.66 10.13 131.79 12.35Q132.93 14.56 132.93 17.53L132.93 17.53Q132.93 20.47 131.79 22.68Q130.66 24.90 128.56 26.14Q126.47 27.38 123.58 27.38ZM123.58 23.34L123.58 23.34Q124.95 23.34 125.87 22.58Q126.79 21.82 127.26 20.50Q127.72 19.17 127.72 17.52L127.72 17.52Q127.72 15.82 127.26 14.51Q126.79 13.19 125.87 12.44Q124.95 11.69 123.58 11.69L123.58 11.69Q122.21 11.69 121.30 12.44Q120.39 13.19 119.92 14.51Q119.46 15.82 119.46 17.52L119.46 17.52Q119.46 19.17 119.92 20.50Q120.39 21.82 121.30 22.58Q122.21 23.34 123.58 23.34Z"/></g>
            <defs xmlns="http://www.w3.org/2000/svg">
<linearGradient id="paint0_linear_5558_2243" x1="5.76044" y1="8.56049" x2="32.7605" y2="8.5605" gradientUnits="userSpaceOnUse">
<stop stop-color="#64C2DB"/>
<stop offset="0.307292" stop-color="#7476ED"/>
<stop offset="0.604167" stop-color="#C994DF"/>
<stop offset="1" stop-color="#E56F8C"/>
</linearGradient>
</defs>
          </svg>
        